<svg width="99" height="99" viewBox="0 0 99 99" fill="none" xmlns="http://www.w3.org/2000/svg">
<g id="icon">
<circle id="Ellipse 5" cx="49.7031" cy="49.1349" r="5.13037" transform="rotate(0.238743 49.7031 49.1349)" stroke="#F6FB00" stroke-width="4"/>
<circle id="Ellipse 7" cx="49.5616" cy="83.0753" r="5.13037" transform="rotate(0.238743 49.5616 83.0753)" stroke="#F6FB00" stroke-width="4"/>
<g id="Group 1">
<rect id="Rectangle 1" x="75.8253" y="77.3911" width="1.89072" height="18.277" rx="0.945362" transform="rotate(-44.7612 75.8253 77.3911)" fill="#00FFFF"/>
<rect id="Rectangle 2" x="88.7545" y="76.1082" width="1.89072" height="18.277" rx="0.945362" transform="rotate(45.2387 88.7545 76.1082)" fill="#00FFFF"/>
</g>
<g id="Group 2">
<rect id="Rectangle 1_2" x="10.5081" y="9.52246" width="1.89072" height="18.277" rx="0.945362" transform="rotate(-44.7612 10.5081 9.52246)" fill="#00FFFF"/>
<rect id="Rectangle 2_2" x="23.4374" y="8.2395" width="1.89072" height="18.277" rx="0.945362" transform="rotate(45.2387 23.4374 8.2395)" fill="#00FFFF"/>
</g>
<rect id="Rectangle 25" x="31.0834" width="2.28172" height="98.1139" rx="1.14086" transform="rotate(0.238743 31.0834 0)" fill="#75B3F9"/>
<rect id="Rectangle 27" x="98.2652" y="31.0833" width="2.28172" height="98.1139" rx="1.14086" transform="rotate(90.2387 98.2652 31.0833)" fill="#75B3F9"/>
<rect id="Rectangle 26" x="65.3089" y="0.142578" width="2.28172" height="98.1139" rx="1.14086" transform="rotate(0.238743 65.3089 0.142578)" fill="#75B3F9"/>
<rect id="Rectangle 28" x="98.1226" y="65.3088" width="2.28172" height="98.1139" rx="1.14086" transform="rotate(90.2387 98.1226 65.3088)" fill="#75B3F9"/>
</g>
</svg>
